Coordinates
version=1
nRows=9
nColumns=36
inDegrees=yes

Units are S.I. units (second, meters, Newtons, ...)
If the header above contains a line with 'inDegrees', this indicates whether rotational values are in degrees (yes) or radians (no).

endheader
time	pelvis_tilt	pelvis_list	pelvis_rotation	pelvis_tx	pelvis_ty	pelvis_tz	hip_flexion_r	hip_adduction_r	hip_rotation_r	knee_angle_r	knee_angle_r_beta	ankle_angle_r	subtalar_angle_r	mtp_angle_r	hip_flexion_l	hip_adduction_l	hip_rotation_l	knee_angle_l	knee_angle_l_beta	ankle_angle_l	subtalar_angle_l	mtp_angle_l	lumbar_extension	lumbar_bending	lumbar_rotation	arm_flex_r	arm_add_r	arm_rot_r	elbow_flex_r	pro_sup_r	arm_flex_l	arm_add_l	arm_rot_l	elbow_flex_l	pro_sup_l
     29.85000000	     -0.23468131	     -4.37212291	      0.87474138	      0.63672933	      0.82063877	      0.72574966	      6.23992184	      7.04764534	     -0.09975203	     15.13333247	      0.26412648	     13.41835355	     -7.69700612	     -7.49999987	     17.24687471	     -7.25928675	     -3.88767886	     60.50336593	      1.05598294	     12.93263195	     -8.95298174	     -7.49999987	     -3.35626068	      7.14478059	     -2.33270828	      1.72733634	    -16.88655216	      3.83818250	     11.75973370	     91.80155406	      5.07849826	    -10.16191322	     11.22166023	     10.25299914	     89.77405639
     29.86666670	     -0.40989775	     -3.94451871	      0.94580136	      0.63117372	      0.81919678	      0.72743019	      4.74520883	      6.79961083	      0.23554326	     13.97064639	      0.24383378	     13.91776084	     -7.34153609	     -7.49999987	     19.89697386	     -6.25901341	     -3.70440805	     59.16523308	      1.03262812	     13.06130100	     -8.45074910	     -7.49999987	     -4.01658040	      6.65465563	     -1.57139151	      2.42920702	    -16.99850459	      4.04150983	     12.99812611	     91.27710311	      5.48858546	    -10.23104398	     11.45316540	     10.79537399	     89.42504928
     29.88333330	     -0.85183238	     -3.68971787	      0.81400996	      0.62433935	      0.81650404	      0.73015101	      4.08549494	      6.65641870	      0.45651157	     13.76018215	      0.24016048	     14.52558493	     -7.14664458	     -7.49999987	     22.89460939	     -5.48605836	     -3.58400052	     57.40576558	      1.00191962	     13.33326154	     -8.01092879	     -7.49999987	     -4.53760868	      6.27328636	     -0.74401968	      3.60228652	    -17.41601850	      4.03129331	     14.48459719	     90.63062114	      5.65733068	    -10.38194012	     11.48950495	     11.86093146	     88.86853497
     29.90000000	     -0.88173134	     -3.14703857	      0.59556678	      0.61627368	      0.81353156	      0.73294942	      3.15829094	      6.16487493	      0.47390186	     14.08214019	      0.24577971	     15.13409769	     -6.43309844	     -7.49999987	     25.07842450	     -4.56893950	     -3.93886831	     54.60309834	      0.95300385	     13.56731382	     -6.86258366	     -7.49999987	     -5.53808908	      5.42168375	      0.19315407	      4.76995440	    -17.74631640	      4.29906410	     16.39844184	     89.95869599	      6.57820995	    -10.56423515	     11.97514919	     11.63678045	     88.63295600
     29.91666670	     -1.66238171	     -3.17574930	      0.33975817	      0.60897242	      0.80940986	      0.73381710	      3.08761265	      6.26306474	      0.35713536	     14.73433198	      0.25716261	     15.59028969	     -6.04337191	     -7.49999987	     28.18902898	     -4.14813673	     -3.85906922	     51.58461721	      0.90032141	     13.64006558	     -6.23396314	     -7.49999987	     -5.69641929	      5.39197716	      1.02189232	      6.11953561	    -18.45460342	      4.19789688	     18.36372603	     88.92841244	      6.77039326	    -10.71033157	     12.00103727	     13.24410899	     87.74434050
     29.93333330	     -2.48346636	     -3.17458635	     -0.15913139	      0.60406180	      0.80663383	      0.73343099	      3.20608296	      6.31900127	      0.14518878	     16.22540236	      0.28318669	     15.99690082	     -5.45601682	     -7.49999987	     30.90775516	     -3.89017792	     -3.93398668	     47.71226720	      0.83273616	     13.41006624	     -5.37334130	     -7.49999987	     -5.65714086	      5.22384047	      2.38114935	      7.27434919	    -19.20825032	      4.55428269	     19.96679389	     86.44958446	      8.15419222	    -10.39505388	     13.37982462	     12.07680870	     87.22602475
     29.95000000	     -3.55407003	     -3.44464271	     -0.51477447	      0.60132024	      0.80417440	      0.73248383	      3.30655989	      6.71850551	      0.02776677	     17.33467886	      0.30254722	     15.85313190	     -5.36829143	     -7.49999987	     33.60361398	     -3.92996721	     -3.56275022	     43.43558071	      0.75809390	     13.05437666	     -4.56493446	     -7.49999987	     -5.25696001	      5.49504770	      3.02682255	      8.86250019	    -19.66923620	      4.14750594	     20.96172665	     85.00598468	      8.46265256	    -10.17537372	     13.10727764	     12.55639181	     86.03111894
     29.96666670	     -4.21980006	     -3.60342863	     -0.49812435	      0.59882744	      0.80221431	      0.73131341	      2.52977039	      6.99001369	     -0.41969440	     17.23118435	      0.30074090	     15.98038817	     -4.49235508	     -7.49999987	     35.53668925	     -3.72473872	     -2.73967076	     38.61450609	      0.67395027	     12.65477158	     -3.57962032	     -7.49999987	     -5.29559413	      5.63843022	      3.46691353	     10.43409043	    -20.12425756	      4.54732329	     21.80867640	     84.47157902	      9.07407921	     -9.99335198	     13.32980892	     12.66089615	     86.77730054
     29.98333330	     -5.06791798	     -3.65571476	     -0.58570381	      0.59587081	      0.80005865	      0.73048878	      1.70312922	      7.17689697	     -0.63227025	     16.35646424	      0.28547415	     16.01773815	     -3.18495714	     -7.49999987	     37.29924656	     -3.55496787	     -1.99994069	     33.18153894	      0.57912711	     12.40981615	     -1.97636425	     -7.49999987	     -5.00087294	      5.62861645	      3.89428430	     11.96120363	    -20.30324862	      4.42750759	     22.55678595	     84.72257501	      9.31472126	     -9.87514510	     13.03429348	     13.00517260	     87.29984201
